<mxfile host="app.diagrams.net" modified="2024-06-27T06:31:47.645Z" agent="Mozilla/5.0 (Windows NT 10.0; Win64; x64) AppleWebKit/537.36 (KHTML, like Gecko) Chrome/126.0.0.0 Safari/537.36" etag="OLwEvszaB_zV1aRtg4cD" version="24.6.3" type="github">
  <diagram name="Page-1" id="7XxN-GwMzVJKhkSfbD1j">
    <mxGraphModel dx="1050" dy="565" grid="0" gridSize="10" guides="1" tooltips="1" connect="1" arrows="1" fold="1" page="1" pageScale="1" pageWidth="850" pageHeight="1100" math="0" shadow="0">
      <root>
        <mxCell id="0" />
        <mxCell id="1" parent="0" />
        <mxCell id="EqDqo3QUpDN6NEs6x2eI-28" value="" style="group;fontFamily=Verdana;fontSize=10;" vertex="1" connectable="0" parent="1">
          <mxGeometry x="362" y="58" width="398" height="413" as="geometry" />
        </mxCell>
        <mxCell id="EqDqo3QUpDN6NEs6x2eI-23" style="edgeStyle=orthogonalEdgeStyle;rounded=0;orthogonalLoop=1;jettySize=auto;html=1;entryX=0.5;entryY=0;entryDx=0;entryDy=0;strokeWidth=2;fontStyle=1;fontFamily=Verdana;fontSize=10;" edge="1" parent="EqDqo3QUpDN6NEs6x2eI-28" source="EqDqo3QUpDN6NEs6x2eI-3" target="EqDqo3QUpDN6NEs6x2eI-4">
          <mxGeometry relative="1" as="geometry" />
        </mxCell>
        <mxCell id="EqDqo3QUpDN6NEs6x2eI-3" value="Palakkad&amp;nbsp;&lt;div style=&quot;font-size: 10px;&quot;&gt;No Calamity (99.1%)&lt;/div&gt;" style="shape=ellipse;html=1;dashed=0;whiteSpace=wrap;perimeter=ellipsePerimeter;fillColor=#d5e8d4;gradientColor=#97d077;strokeColor=#82b366;strokeWidth=2;fontStyle=1;fontFamily=Verdana;fontSize=10;" vertex="1" parent="EqDqo3QUpDN6NEs6x2eI-28">
          <mxGeometry x="236.3125" width="161.6875" height="55.810810810810814" as="geometry" />
        </mxCell>
        <mxCell id="EqDqo3QUpDN6NEs6x2eI-24" style="edgeStyle=orthogonalEdgeStyle;rounded=0;orthogonalLoop=1;jettySize=auto;html=1;entryX=0.5;entryY=0;entryDx=0;entryDy=0;strokeWidth=2;fontStyle=1;fontFamily=Verdana;fontSize=10;" edge="1" parent="EqDqo3QUpDN6NEs6x2eI-28" source="EqDqo3QUpDN6NEs6x2eI-4" target="EqDqo3QUpDN6NEs6x2eI-5">
          <mxGeometry relative="1" as="geometry" />
        </mxCell>
        <mxCell id="EqDqo3QUpDN6NEs6x2eI-4" value="Thrissur&amp;nbsp;&lt;div style=&quot;font-size: 10px;&quot;&gt;Storm (82.3%)&lt;/div&gt;" style="shape=ellipse;html=1;dashed=0;whiteSpace=wrap;perimeter=ellipsePerimeter;fillColor=#dae8fc;gradientColor=#7ea6e0;strokeColor=#6c8ebf;strokeWidth=2;fontStyle=1;fontFamily=Verdana;fontSize=10;" vertex="1" parent="EqDqo3QUpDN6NEs6x2eI-28">
          <mxGeometry x="242.53125" y="89.2972972972973" width="149.25" height="55.810810810810814" as="geometry" />
        </mxCell>
        <mxCell id="EqDqo3QUpDN6NEs6x2eI-25" style="edgeStyle=orthogonalEdgeStyle;rounded=0;orthogonalLoop=1;jettySize=auto;html=1;strokeWidth=2;fontStyle=1;fontFamily=Verdana;fontSize=10;" edge="1" parent="EqDqo3QUpDN6NEs6x2eI-28" source="EqDqo3QUpDN6NEs6x2eI-5" target="EqDqo3QUpDN6NEs6x2eI-13">
          <mxGeometry relative="1" as="geometry" />
        </mxCell>
        <mxCell id="EqDqo3QUpDN6NEs6x2eI-5" value="Malappuram&lt;div style=&quot;font-size: 10px;&quot;&gt;Flood (89.6%)&lt;/div&gt;" style="shape=ellipse;html=1;dashed=0;whiteSpace=wrap;perimeter=ellipsePerimeter;fillColor=#dae8fc;gradientColor=#7ea6e0;strokeColor=#6c8ebf;strokeWidth=2;fontStyle=1;fontFamily=Verdana;fontSize=10;" vertex="1" parent="EqDqo3QUpDN6NEs6x2eI-28">
          <mxGeometry x="242.53125" y="178.5945945945946" width="149.25" height="55.810810810810814" as="geometry" />
        </mxCell>
        <mxCell id="EqDqo3QUpDN6NEs6x2eI-12" value="Wayanad&lt;div style=&quot;font-size: 10px;&quot;&gt;No calamity (97.7%)&lt;/div&gt;" style="shape=ellipse;html=1;dashed=0;whiteSpace=wrap;perimeter=ellipsePerimeter;fillColor=#d5e8d4;gradientColor=#97d077;strokeColor=#82b366;strokeWidth=2;fontStyle=1;fontFamily=Verdana;fontSize=10;" vertex="1" parent="EqDqo3QUpDN6NEs6x2eI-28">
          <mxGeometry x="6.21875" y="245.56756756756758" width="161.6875" height="55.810810810810814" as="geometry" />
        </mxCell>
        <mxCell id="EqDqo3QUpDN6NEs6x2eI-13" value="Kozhikode&lt;div style=&quot;font-size: 10px;&quot;&gt;Storm (87.8%)&lt;/div&gt;" style="shape=ellipse;html=1;dashed=0;whiteSpace=wrap;perimeter=ellipsePerimeter;fillColor=#dae8fc;gradientColor=#7ea6e0;strokeColor=#6c8ebf;strokeWidth=2;fontStyle=1;fontFamily=Verdana;fontSize=10;" vertex="1" parent="EqDqo3QUpDN6NEs6x2eI-28">
          <mxGeometry x="242.53125" y="267.89189189189193" width="149.25" height="55.810810810810814" as="geometry" />
        </mxCell>
        <mxCell id="EqDqo3QUpDN6NEs6x2eI-14" value="Kannur&amp;nbsp;&lt;div style=&quot;font-size: 10px;&quot;&gt;Flood (76.4%)&lt;/div&gt;" style="shape=ellipse;html=1;dashed=0;whiteSpace=wrap;perimeter=ellipsePerimeter;fillColor=#dae8fc;gradientColor=#7ea6e0;strokeColor=#6c8ebf;strokeWidth=2;fontStyle=1;fontFamily=Verdana;fontSize=10;" vertex="1" parent="EqDqo3QUpDN6NEs6x2eI-28">
          <mxGeometry x="93.28125" y="357.1891891891892" width="174.125" height="55.810810810810814" as="geometry" />
        </mxCell>
        <mxCell id="EqDqo3QUpDN6NEs6x2eI-26" value="" style="endArrow=classic;html=1;rounded=0;entryX=1;entryY=0;entryDx=0;entryDy=0;exitX=0.5;exitY=1;exitDx=0;exitDy=0;strokeWidth=2;fontStyle=1;fontFamily=Verdana;fontSize=10;" edge="1" parent="EqDqo3QUpDN6NEs6x2eI-28" source="EqDqo3QUpDN6NEs6x2eI-13" target="EqDqo3QUpDN6NEs6x2eI-14">
          <mxGeometry width="50" height="50" relative="1" as="geometry">
            <mxPoint x="339.54374999999993" y="323.70270270270277" as="sourcePoint" />
            <mxPoint x="254.96875" y="359.4216216216217" as="targetPoint" />
          </mxGeometry>
        </mxCell>
        <mxCell id="EqDqo3QUpDN6NEs6x2eI-27" value="" style="endArrow=classic;html=1;rounded=0;entryX=0.357;entryY=0;entryDx=0;entryDy=0;exitX=0.5;exitY=1;exitDx=0;exitDy=0;strokeWidth=2;entryPerimeter=0;fontStyle=1;fontFamily=Verdana;fontSize=10;" edge="1" parent="EqDqo3QUpDN6NEs6x2eI-28" source="EqDqo3QUpDN6NEs6x2eI-12" target="EqDqo3QUpDN6NEs6x2eI-14">
          <mxGeometry width="50" height="50" relative="1" as="geometry">
            <mxPoint x="84.57499999999999" y="279.0540540540541" as="sourcePoint" />
            <mxPoint y="314.77297297297304" as="targetPoint" />
          </mxGeometry>
        </mxCell>
        <mxCell id="EqDqo3QUpDN6NEs6x2eI-29" value="" style="group;fontFamily=Verdana;fontSize=10;" vertex="1" connectable="0" parent="EqDqo3QUpDN6NEs6x2eI-28">
          <mxGeometry x="-298.5" y="44.64864864864865" width="383.07499999999993" height="234.40540540540545" as="geometry" />
        </mxCell>
        <mxCell id="EqDqo3QUpDN6NEs6x2eI-6" value="Kollam&lt;div style=&quot;font-size: 10px;&quot;&gt;No calamity (95.3%)&lt;/div&gt;" style="shape=ellipse;html=1;dashed=0;whiteSpace=wrap;perimeter=ellipsePerimeter;fillColor=#d5e8d4;gradientColor=#97d077;strokeColor=#82b366;strokeWidth=2;fontStyle=1;fontFamily=Verdana;fontSize=10;" vertex="1" parent="EqDqo3QUpDN6NEs6x2eI-29">
          <mxGeometry x="3.7312499999999993" y="167.43243243243245" width="174.125" height="66.97297297297298" as="geometry" />
        </mxCell>
        <mxCell id="EqDqo3QUpDN6NEs6x2eI-7" value="Alappuzha&lt;div style=&quot;font-size: 10px;&quot;&gt;Heatwave (68.7%)&lt;/div&gt;" style="shape=ellipse;html=1;dashed=0;whiteSpace=wrap;perimeter=ellipsePerimeter;fillColor=#e51400;strokeColor=#B20000;fontColor=#ffffff;strokeWidth=2;fontStyle=1;fontFamily=Verdana;fontSize=10;" vertex="1" parent="EqDqo3QUpDN6NEs6x2eI-29">
          <mxGeometry x="221.3875" y="111.62162162162163" width="161.6875" height="55.810810810810814" as="geometry" />
        </mxCell>
        <mxCell id="EqDqo3QUpDN6NEs6x2eI-16" style="edgeStyle=orthogonalEdgeStyle;rounded=0;orthogonalLoop=1;jettySize=auto;html=1;strokeWidth=2;fontStyle=1;fontFamily=Verdana;fontSize=10;" edge="1" parent="EqDqo3QUpDN6NEs6x2eI-29" source="EqDqo3QUpDN6NEs6x2eI-9" target="EqDqo3QUpDN6NEs6x2eI-6">
          <mxGeometry relative="1" as="geometry">
            <Array as="points">
              <mxPoint x="90.79374999999999" y="133.94594594594597" />
              <mxPoint x="90.79374999999999" y="133.94594594594597" />
            </Array>
          </mxGeometry>
        </mxCell>
        <mxCell id="EqDqo3QUpDN6NEs6x2eI-9" value="Thiruvananthapuram&amp;nbsp;&lt;div style=&quot;font-size: 10px;&quot;&gt;Flood (92.5%)&lt;/div&gt;" style="shape=ellipse;html=1;dashed=0;whiteSpace=wrap;perimeter=ellipsePerimeter;fillColor=#dae8fc;gradientColor=#7ea6e0;strokeColor=#6c8ebf;strokeWidth=2;fontStyle=1;fontFamily=Verdana;fontSize=10;" vertex="1" parent="EqDqo3QUpDN6NEs6x2eI-29">
          <mxGeometry y="44.64864864864865" width="174.125" height="66.97297297297298" as="geometry" />
        </mxCell>
        <mxCell id="EqDqo3QUpDN6NEs6x2eI-20" style="edgeStyle=orthogonalEdgeStyle;rounded=0;orthogonalLoop=1;jettySize=auto;html=1;strokeWidth=2;fontStyle=1;fontFamily=Verdana;fontSize=10;" edge="1" parent="EqDqo3QUpDN6NEs6x2eI-29" source="EqDqo3QUpDN6NEs6x2eI-11" target="EqDqo3QUpDN6NEs6x2eI-7">
          <mxGeometry relative="1" as="geometry" />
        </mxCell>
        <mxCell id="EqDqo3QUpDN6NEs6x2eI-11" value="Kochi&lt;div style=&quot;font-size: 10px;&quot;&gt;No calamity (98.3%)&lt;/div&gt;" style="shape=ellipse;html=1;dashed=0;whiteSpace=wrap;perimeter=ellipsePerimeter;fillColor=#d5e8d4;strokeColor=#82b366;gradientColor=#97d077;strokeWidth=2;fontStyle=1;fontFamily=Verdana;fontSize=10;" vertex="1" parent="EqDqo3QUpDN6NEs6x2eI-29">
          <mxGeometry x="227.60625" width="149.25" height="55.810810810810814" as="geometry" />
        </mxCell>
        <mxCell id="EqDqo3QUpDN6NEs6x2eI-17" style="edgeStyle=orthogonalEdgeStyle;rounded=0;orthogonalLoop=1;jettySize=auto;html=1;entryX=0.451;entryY=0.977;entryDx=0;entryDy=0;entryPerimeter=0;strokeWidth=2;fontStyle=1;fontFamily=Verdana;fontSize=10;" edge="1" parent="EqDqo3QUpDN6NEs6x2eI-29" source="EqDqo3QUpDN6NEs6x2eI-6" target="EqDqo3QUpDN6NEs6x2eI-9">
          <mxGeometry relative="1" as="geometry">
            <Array as="points">
              <mxPoint x="78.35624999999999" y="121.66756756756757" />
            </Array>
          </mxGeometry>
        </mxCell>
        <mxCell id="EqDqo3QUpDN6NEs6x2eI-22" value="" style="endArrow=classic;html=1;rounded=0;entryX=1;entryY=0.5;entryDx=0;entryDy=0;exitX=0.254;exitY=0.956;exitDx=0;exitDy=0;exitPerimeter=0;strokeWidth=2;fontStyle=1;fontFamily=Verdana;fontSize=10;" edge="1" parent="EqDqo3QUpDN6NEs6x2eI-29" source="EqDqo3QUpDN6NEs6x2eI-7" target="EqDqo3QUpDN6NEs6x2eI-6">
          <mxGeometry width="50" height="50" relative="1" as="geometry">
            <mxPoint x="202.73125" y="223.24324324324326" as="sourcePoint" />
            <mxPoint x="264.91875" y="167.43243243243245" as="targetPoint" />
          </mxGeometry>
        </mxCell>
      </root>
    </mxGraphModel>
  </diagram>
</mxfile>
